<svg id="svg" version="1.1" xmlns="http://www.w3.org/2000/svg" xmlns:xlink="http://www.w3.org/1999/xlink" width="200" height="200" viewBox="0, 0, 400,400"><g id="svgg"><path id="path0" d="M130.667 200.000 C 130.667 234.148,130.725 238.667,131.167 238.667 C 131.608 238.667,131.667 234.148,131.667 200.000 C 131.667 165.852,131.608 161.333,131.167 161.333 C 130.725 161.333,130.667 165.852,130.667 200.000 M76.560 172.583 C 75.742 173.979,58.667 205.700,58.667 205.823 C 58.667 205.914,62.338 206.028,66.824 206.078 L 74.982 206.167 69.139 217.000 C 65.925 222.958,62.682 228.954,61.932 230.325 L 60.568 232.816 64.924 228.658 C 67.321 226.371,75.119 218.875,82.255 212.000 L 95.229 199.500 87.089 199.411 C 82.611 199.362,78.997 199.201,79.058 199.054 C 79.118 198.908,82.354 192.923,86.250 185.755 C 90.146 178.587,93.333 172.634,93.333 172.528 C 93.333 172.237,76.730 172.293,76.560 172.583 M191.667 195.683 L 191.667 213.032 193.750 212.933 L 195.833 212.833 196.000 203.850 L 196.167 194.866 197.597 193.776 C 200.898 191.259,205.015 191.555,206.574 194.420 C 207.084 195.356,207.177 196.663,207.276 204.250 L 207.391 213.000 209.362 213.000 L 211.333 213.000 211.333 204.179 C 211.333 194.417,211.055 192.778,209.082 190.933 C 205.899 187.954,200.775 188.042,197.096 191.137 L 196.102 191.973 195.884 187.434 C 195.765 184.937,195.667 181.868,195.667 180.614 L 195.667 178.333 193.667 178.333 L 191.667 178.333 191.667 195.683 M334.703 178.799 C 331.999 180.297,332.945 184.333,336.000 184.333 C 339.207 184.333,340.101 180.038,337.151 178.805 C 335.793 178.238,335.715 178.238,334.703 178.799 M170.667 179.609 C 159.914 183.202,155.812 196.536,162.348 206.649 C 167.188 214.137,180.159 215.537,186.272 209.230 L 187.371 208.096 186.489 207.048 C 185.426 205.784,184.952 205.748,183.543 206.823 C 176.323 212.330,166.258 208.607,164.375 199.734 C 161.745 187.341,172.588 178.471,182.622 184.805 C 184.448 185.958,185.001 185.887,186.079 184.362 L 186.991 183.072 185.827 182.184 C 181.973 179.245,175.199 178.094,170.667 179.609 M306.667 195.833 L 306.667 212.667 309.000 212.667 L 311.333 212.667 311.333 206.333 L 311.333 200.000 315.465 200.000 C 324.829 200.000,329.283 196.339,328.935 188.928 C 328.579 181.330,324.768 179.018,312.583 179.006 L 306.667 179.000 306.667 195.833 M319.890 183.049 C 325.691 184.510,326.353 192.980,320.866 195.535 C 319.383 196.226,318.669 196.327,315.250 196.330 L 311.333 196.333 311.333 189.500 L 311.333 182.667 314.852 182.667 C 316.788 182.667,319.055 182.839,319.890 183.049 M222.100 189.287 C 218.533 190.520,216.900 192.122,217.804 193.503 C 218.527 194.605,219.150 194.553,221.810 193.167 C 226.848 190.541,230.637 192.406,230.659 197.522 L 230.667 199.211 227.333 199.602 C 218.654 200.620,214.704 204.021,216.379 209.034 C 217.889 213.552,224.410 214.447,229.358 210.815 L 230.977 209.627 231.175 210.563 C 231.518 212.185,231.841 212.496,233.303 212.603 L 234.706 212.707 234.603 203.437 C 234.489 193.209,234.405 192.776,232.114 190.601 C 230.019 188.613,225.694 188.045,222.100 189.287 M249.167 189.129 C 248.221 189.542,246.307 191.456,245.436 192.860 C 245.089 193.419,245.037 193.324,245.020 192.105 C 244.983 189.526,244.587 189.000,242.675 189.000 L 241.000 189.000 241.000 200.833 L 241.000 212.667 243.150 212.667 L 245.300 212.667 245.400 204.725 L 245.500 196.783 246.416 195.399 C 247.821 193.278,248.729 192.833,251.653 192.833 L 254.167 192.833 254.345 191.057 C 254.585 188.671,252.228 187.793,249.167 189.129 M262.665 188.959 C 256.851 190.859,254.988 197.581,259.179 201.533 L 260.353 202.640 259.143 203.748 C 257.398 205.348,257.174 207.438,258.579 209.011 L 259.567 210.117 258.034 211.142 C 254.022 213.823,255.620 218.931,260.991 220.596 C 269.979 223.381,280.038 217.239,276.715 210.995 C 275.530 208.768,273.683 208.152,266.756 207.676 C 262.629 207.392,261.333 206.880,261.333 205.533 C 261.333 204.175,262.165 203.835,265.521 203.818 C 271.380 203.789,274.500 201.208,274.500 196.389 C 274.500 194.983,274.371 193.571,274.214 193.250 C 273.974 192.760,274.090 192.667,274.943 192.667 C 276.783 192.667,277.667 192.129,277.667 191.008 L 277.667 190.000 274.483 190.000 C 272.146 190.000,271.017 189.851,270.233 189.439 C 269.046 188.815,264.071 188.499,262.665 188.959 M287.444 189.284 C 278.337 192.431,277.713 207.387,286.500 211.917 C 291.742 214.619,303.317 211.272,299.883 208.047 L 299.100 207.311 296.643 208.489 C 294.631 209.453,293.804 209.667,292.082 209.667 C 287.646 209.667,285.408 207.472,284.516 202.250 L 284.303 201.000 292.444 201.000 C 301.927 201.000,301.542 201.136,301.218 197.910 C 300.513 190.886,294.217 186.943,287.444 189.284 M334.000 200.833 L 334.000 212.667 336.167 212.667 L 338.333 212.667 338.332 205.583 C 338.331 201.688,338.233 196.362,338.114 193.750 L 337.896 189.000 335.948 189.000 L 334.000 189.000 334.000 200.833 M268.900 192.320 C 271.793 194.083,271.672 198.946,268.698 200.484 C 263.922 202.953,258.630 197.850,261.496 193.539 C 262.748 191.656,266.735 190.999,268.900 192.320 M294.218 192.310 C 295.897 193.072,297.333 195.287,297.333 197.113 L 297.333 198.333 290.956 198.333 L 284.579 198.333 284.781 197.089 C 285.449 192.972,290.284 190.524,294.218 192.310 M230.667 204.465 C 230.667 210.268,220.857 212.708,220.103 207.092 C 219.721 204.238,223.398 202.279,229.583 202.042 L 230.667 202.000 230.667 204.465 M267.298 211.167 C 271.912 211.458,273.318 212.166,273.328 214.205 C 273.350 218.658,261.745 219.826,259.727 215.574 C 258.792 213.603,261.130 210.503,263.300 210.837 C 263.777 210.910,265.576 211.058,267.298 211.167 " stroke="none" fill="#fbf8f7" fill-rule="evenodd"></path><path id="path1" d="M0.000 200.000 L 0.000 400.000 200.000 400.000 L 400.000 400.000 400.000 200.000 L 400.000 0.000 200.000 0.000 L 0.000 0.000 0.000 200.000 M132.000 200.000 C 132.000 238.778,131.996 239.000,131.333 239.000 C 130.889 239.000,130.666 238.777,130.665 238.333 C 130.664 237.967,130.664 220.717,130.664 200.000 C 130.664 179.283,130.664 162.033,130.665 161.667 C 130.666 161.223,130.889 161.000,131.333 161.000 C 131.996 161.000,132.000 161.222,132.000 200.000 M92.900 172.000 C 93.322 172.000,93.667 172.068,93.667 172.151 C 93.667 172.492,92.824 174.228,92.244 175.083 C 91.901 175.588,91.744 176.002,91.894 176.005 C 92.044 176.008,92.013 176.120,91.825 176.255 C 91.637 176.390,91.112 177.250,90.659 178.167 C 90.205 179.083,89.742 179.908,89.630 180.000 C 88.949 180.558,88.392 182.259,88.767 182.637 C 89.078 182.950,89.048 182.994,88.629 182.835 C 88.220 182.679,87.822 183.171,86.962 184.899 C 86.341 186.146,85.741 187.242,85.628 187.333 C 85.085 187.775,84.039 190.339,84.156 190.944 C 84.247 191.418,84.147 191.574,83.831 191.453 C 83.314 191.255,81.847 193.817,82.175 194.347 C 82.285 194.525,82.136 194.763,81.842 194.876 C 81.273 195.095,80.140 196.997,80.575 197.005 C 80.717 197.008,80.680 197.120,80.492 197.255 C 80.305 197.390,79.890 197.910,79.572 198.411 L 78.992 199.322 87.189 199.411 L 95.385 199.500 91.385 203.490 C 89.185 205.685,87.472 207.621,87.577 207.792 C 87.684 207.964,87.588 207.991,87.363 207.852 C 86.883 207.555,80.619 213.653,80.914 214.130 C 81.018 214.299,80.953 214.343,80.769 214.230 C 80.337 213.963,78.577 215.791,78.912 216.160 C 79.052 216.314,78.925 216.353,78.630 216.248 C 77.979 216.016,75.798 218.202,75.907 218.978 C 75.960 219.352,75.925 219.372,75.784 219.047 C 75.650 218.738,74.703 219.473,72.810 221.356 C 71.283 222.875,70.124 224.265,70.235 224.444 C 70.347 224.625,70.265 224.664,70.049 224.530 C 69.608 224.258,64.611 228.974,64.880 229.409 C 64.973 229.560,64.921 229.642,64.764 229.592 C 64.061 229.366,60.025 233.461,60.433 233.986 C 60.782 234.434,60.760 234.443,60.263 234.053 C 59.727 233.633,59.733 233.550,60.362 232.699 C 60.730 232.201,61.056 231.475,61.085 231.086 C 61.114 230.698,61.228 230.435,61.337 230.503 C 61.447 230.570,61.903 229.929,62.352 229.078 C 62.800 228.227,63.672 226.661,64.290 225.598 C 65.168 224.085,65.329 223.563,65.028 223.200 C 64.726 222.836,64.758 222.747,65.180 222.785 C 65.498 222.814,66.054 222.223,66.545 221.333 C 68.048 218.608,68.766 217.168,68.687 217.037 C 68.645 216.966,68.743 216.816,68.905 216.704 C 69.440 216.335,71.358 212.647,71.261 212.174 C 71.209 211.919,71.290 211.738,71.440 211.772 C 71.862 211.867,72.399 210.709,72.133 210.279 C 71.998 210.060,72.043 209.987,72.239 210.108 C 72.428 210.225,73.057 209.427,73.643 208.327 L 74.706 206.333 66.520 206.333 C 62.017 206.333,58.333 206.241,58.333 206.128 C 58.333 206.016,59.013 204.666,59.844 203.128 C 60.676 201.591,61.238 200.331,61.094 200.328 C 60.951 200.325,61.006 200.213,61.216 200.078 C 61.427 199.944,62.088 198.933,62.685 197.833 C 63.282 196.733,63.968 195.544,64.209 195.189 C 64.534 194.712,64.552 194.430,64.277 194.098 C 63.983 193.744,64.031 193.700,64.511 193.884 C 64.988 194.067,65.069 193.994,64.895 193.541 C 64.774 193.224,64.797 193.041,64.947 193.134 C 65.248 193.320,67.493 189.119,67.499 188.361 C 67.501 188.101,67.690 187.826,67.918 187.750 C 68.146 187.673,68.333 187.399,68.333 187.139 C 68.333 186.879,68.466 186.667,68.628 186.667 C 68.790 186.667,69.006 186.404,69.108 186.083 C 69.210 185.762,69.877 184.450,70.591 183.167 C 73.873 177.266,75.041 175.000,74.800 175.000 C 74.657 175.000,74.816 174.798,75.154 174.551 C 75.541 174.268,75.669 173.940,75.499 173.666 C 75.335 173.400,75.362 173.311,75.566 173.438 C 75.751 173.552,76.071 173.275,76.277 172.823 L 76.652 172.000 84.179 172.000 C 90.104 172.000,91.656 171.911,91.471 171.583 C 91.283 171.250,91.325 171.250,91.684 171.583 C 91.931 171.813,92.478 172.000,92.900 172.000 M196.096 184.845 L 196.025 191.357 197.696 190.429 C 198.615 189.918,199.622 189.275,199.934 189.000 C 200.506 188.495,205.667 188.233,205.667 188.710 C 205.667 188.830,206.079 189.031,206.583 189.156 C 207.088 189.282,207.969 189.742,208.542 190.178 C 209.115 190.614,209.702 190.865,209.846 190.736 C 209.989 190.606,209.999 190.688,209.867 190.917 C 209.735 191.146,209.786 191.333,209.980 191.333 C 210.174 191.333,210.333 191.622,210.333 191.974 C 210.333 192.327,210.746 193.108,211.250 193.710 C 211.754 194.311,211.958 194.676,211.704 194.520 C 211.331 194.292,211.282 194.456,211.451 195.368 C 211.709 196.756,211.794 212.651,211.545 212.900 C 211.317 213.127,207.358 213.135,207.131 212.909 C 207.037 212.815,206.973 209.039,206.988 204.518 C 207.024 193.683,206.560 192.473,202.333 192.376 C 200.375 192.331,197.076 193.776,197.250 194.604 C 197.296 194.822,197.221 194.982,197.083 194.961 C 196.366 194.847,196.276 195.052,196.853 195.483 C 197.481 195.953,197.479 195.962,196.775 195.784 C 196.018 195.594,195.904 196.049,196.478 196.968 C 196.678 197.289,196.648 197.361,196.385 197.198 C 196.098 197.021,196.000 199.007,196.000 204.995 L 196.000 213.029 193.583 212.931 C 192.211 212.876,191.190 212.689,191.222 212.500 C 191.252 212.317,191.116 211.973,190.919 211.736 C 190.663 211.427,190.671 211.196,190.947 210.919 C 191.229 210.638,191.333 206.184,191.333 194.433 L 191.333 178.333 193.750 178.333 L 196.167 178.333 196.096 184.845 M338.215 179.215 C 338.608 179.624,338.989 179.900,339.060 179.829 C 339.267 179.622,339.292 181.050,339.105 182.439 C 339.011 183.139,338.848 183.626,338.744 183.522 C 338.640 183.417,338.298 183.564,337.985 183.847 C 336.000 185.643,332.530 183.843,332.859 181.188 C 333.184 178.571,336.442 177.371,338.215 179.215 M181.886 179.865 C 186.581 181.740,187.552 182.913,185.958 184.780 C 184.698 186.254,184.658 186.257,182.608 184.996 C 181.562 184.352,180.683 184.044,180.160 184.139 C 179.711 184.221,179.244 184.124,179.121 183.925 C 178.987 183.710,179.052 183.660,179.282 183.802 C 179.493 183.932,179.667 183.863,179.667 183.647 C 179.667 183.411,179.341 183.318,178.843 183.413 C 178.380 183.502,178.104 183.434,178.213 183.258 C 178.329 183.070,177.237 183.001,175.453 183.084 C 171.982 183.247,170.167 183.936,168.083 185.882 C 166.759 187.119,166.182 188.005,167.052 187.468 C 167.292 187.320,167.346 187.377,167.195 187.621 C 167.062 187.835,166.822 187.929,166.660 187.829 C 166.076 187.468,164.419 191.997,164.870 192.726 C 165.011 192.954,164.954 193.011,164.727 192.871 C 164.045 192.449,164.306 198.867,165.064 201.167 C 165.847 203.541,166.933 205.414,167.370 205.144 C 167.542 205.038,167.645 205.074,167.598 205.225 C 167.235 206.389,171.850 208.927,174.500 209.022 C 178.268 209.156,183.766 207.637,183.145 206.632 C 183.038 206.459,183.074 206.352,183.225 206.396 C 183.376 206.439,183.839 206.287,184.254 206.057 C 185.132 205.570,185.594 205.779,186.775 207.194 L 187.632 208.222 186.510 209.377 C 185.893 210.013,184.850 210.822,184.194 211.175 C 183.537 211.529,183.000 211.929,183.000 212.065 C 183.000 212.201,182.790 212.232,182.534 212.133 C 182.277 212.035,181.968 212.115,181.847 212.311 C 181.726 212.506,181.252 212.667,180.794 212.667 C 180.336 212.667,180.039 212.794,180.135 212.949 C 180.392 213.365,171.214 213.302,170.942 212.886 C 170.796 212.662,170.513 212.709,170.128 213.021 C 169.804 213.285,169.646 213.321,169.777 213.102 C 169.932 212.844,169.477 212.467,168.475 212.023 C 167.627 211.648,166.221 210.818,165.349 210.178 C 164.477 209.538,163.643 209.124,163.495 209.257 C 163.347 209.391,163.328 209.322,163.453 209.105 C 163.577 208.888,163.295 208.325,162.825 207.855 C 162.354 207.385,162.062 207.000,162.174 207.000 C 162.287 207.000,162.056 206.547,161.662 205.994 C 161.268 205.441,160.683 204.241,160.361 203.328 C 160.040 202.415,159.669 201.775,159.537 201.907 C 159.406 202.039,159.397 201.888,159.518 201.573 C 159.745 200.981,159.377 200.812,158.810 201.250 C 158.632 201.387,158.718 201.275,159.002 201.000 C 159.393 200.621,159.458 200.177,159.271 199.167 C 158.964 197.508,159.077 191.668,159.417 191.667 C 159.554 191.667,159.667 191.439,159.667 191.160 C 159.667 189.503,163.788 182.372,164.763 182.342 C 165.094 182.331,167.082 180.948,167.412 180.500 C 167.546 180.317,167.659 180.271,167.662 180.398 C 167.664 180.525,168.322 180.339,169.124 179.985 C 172.660 178.420,178.140 178.369,181.886 179.865 M320.000 179.111 C 320.000 179.264,320.188 179.326,320.417 179.248 C 320.646 179.171,321.337 179.317,321.953 179.573 C 322.568 179.829,323.147 179.964,323.238 179.873 C 323.330 179.782,323.576 179.850,323.786 180.026 C 323.995 180.201,324.809 180.797,325.594 181.349 C 326.380 181.902,327.293 182.798,327.623 183.342 C 327.954 183.886,328.332 184.224,328.463 184.092 C 328.595 183.961,328.607 184.100,328.492 184.401 C 328.365 184.731,328.556 185.223,328.974 185.641 C 329.355 186.022,329.507 186.333,329.311 186.333 C 329.090 186.333,329.050 186.617,329.206 187.083 C 329.487 187.921,329.440 190.722,329.124 192.000 C 329.011 192.458,328.899 193.157,328.876 193.552 C 328.852 193.946,328.743 194.214,328.634 194.146 C 328.524 194.078,328.224 194.426,327.967 194.919 C 327.710 195.412,327.012 196.247,326.417 196.775 C 325.821 197.304,325.321 197.983,325.307 198.285 C 325.291 198.617,325.215 198.672,325.115 198.425 C 324.988 198.111,324.783 198.123,324.225 198.478 C 323.283 199.077,320.519 199.993,319.387 200.082 C 318.899 200.120,318.275 200.387,318.000 200.675 C 317.725 200.963,317.637 200.996,317.805 200.748 C 318.056 200.379,317.502 200.309,314.722 200.357 C 312.858 200.389,311.333 200.482,311.333 200.563 C 311.333 200.644,311.498 201.019,311.700 201.395 C 311.977 201.914,311.971 202.021,311.672 201.837 C 311.317 201.618,311.296 206.328,311.646 207.500 C 311.701 207.683,311.728 208.921,311.706 210.250 L 311.667 212.667 309.000 212.667 L 306.333 212.667 306.333 195.750 L 306.333 178.833 313.167 178.833 C 316.925 178.833,320.000 178.958,320.000 179.111 M340.445 182.438 C 340.706 182.282,340.698 182.373,340.420 182.717 C 340.192 182.998,340.117 183.351,340.253 183.501 C 340.389 183.651,340.313 183.666,340.083 183.534 C 339.854 183.402,339.679 182.965,339.693 182.564 C 339.707 182.162,339.795 182.022,339.888 182.252 C 339.981 182.482,340.232 182.566,340.445 182.438 M311.333 189.489 L 311.333 196.402 315.417 196.272 C 319.555 196.141,322.715 195.221,322.154 194.312 C 322.042 194.131,322.133 194.025,322.356 194.075 C 323.071 194.237,324.111 192.001,324.229 190.050 C 324.534 184.964,322.150 183.021,315.253 182.737 L 311.333 182.575 311.333 189.489 M230.223 189.161 C 232.752 190.173,234.129 192.191,235.005 196.167 C 235.046 196.350,235.061 200.268,235.039 204.874 L 235.000 213.247 233.430 212.954 C 231.568 212.606,231.333 212.410,231.033 210.948 L 230.805 209.833 229.895 210.742 C 229.394 211.242,228.918 211.617,228.837 211.576 C 228.755 211.534,228.410 211.725,228.071 212.000 C 227.349 212.584,227.191 212.630,224.330 213.083 C 218.198 214.055,213.500 208.627,216.538 204.080 C 216.874 203.578,217.115 203.054,217.074 202.917 C 217.033 202.779,217.112 202.701,217.250 202.744 C 217.709 202.885,219.895 201.173,219.805 200.742 C 219.757 200.508,219.793 200.470,219.886 200.658 C 219.979 200.846,220.277 201.000,220.547 201.000 C 220.818 201.000,220.970 200.887,220.885 200.750 C 220.800 200.612,221.054 200.470,221.448 200.433 C 222.762 200.311,226.497 199.535,226.667 199.349 C 226.758 199.249,227.583 199.167,228.500 199.167 L 230.167 199.167 230.258 197.333 C 230.490 192.688,226.537 190.617,222.264 193.145 C 221.477 193.610,220.470 194.149,220.025 194.343 C 219.112 194.740,217.222 194.449,217.526 193.958 C 217.635 193.782,217.483 193.269,217.188 192.819 C 216.893 192.368,216.784 192.000,216.947 192.000 C 217.109 192.000,217.600 191.647,218.038 191.216 C 218.837 190.428,222.824 188.667,223.807 188.667 C 224.096 188.667,224.333 188.545,224.333 188.397 C 224.333 187.979,228.678 188.543,230.223 189.161 M254.662 190.301 C 254.652 192.871,254.543 192.971,251.824 192.899 C 249.344 192.832,247.356 193.647,247.583 194.637 C 247.629 194.837,247.479 194.962,247.250 194.917 C 247.021 194.871,246.854 195.094,246.879 195.413 C 246.904 195.732,246.809 195.921,246.668 195.834 C 245.886 195.351,245.631 197.878,245.730 205.114 C 245.847 213.627,246.066 213.000,242.973 213.000 L 241.000 213.000 241.000 200.982 L 241.000 188.965 243.136 189.034 C 244.780 189.087,245.233 189.207,245.099 189.556 C 245.004 189.805,245.130 190.260,245.379 190.568 C 245.692 190.954,245.704 191.050,245.417 190.878 C 244.924 190.582,244.865 191.270,245.321 191.991 C 245.581 192.403,245.671 192.377,245.880 191.831 C 246.253 190.861,249.692 188.136,250.069 188.513 C 250.141 188.585,250.643 188.526,251.183 188.382 C 252.953 187.909,254.668 188.854,254.662 190.301 M269.941 189.129 C 270.865 189.613,271.137 189.636,271.588 189.271 C 271.985 188.949,272.062 188.944,271.878 189.250 C 271.685 189.571,272.316 189.667,274.627 189.667 C 276.277 189.667,277.720 189.816,277.833 189.999 C 278.206 190.603,278.300 191.667,277.981 191.667 C 277.808 191.667,277.667 191.901,277.667 192.186 C 277.667 192.472,277.517 192.613,277.333 192.500 C 277.150 192.387,277.000 192.439,277.000 192.616 C 277.000 192.793,276.700 192.859,276.333 192.763 C 275.908 192.652,275.665 192.754,275.662 193.044 C 275.657 193.427,275.610 193.426,275.365 193.041 C 274.869 192.257,274.319 192.919,274.679 193.867 C 275.090 194.946,275.092 197.381,274.683 198.456 C 274.459 199.047,274.483 199.336,274.767 199.451 C 274.987 199.541,274.888 199.626,274.548 199.640 C 274.142 199.658,273.994 199.837,274.119 200.163 C 274.224 200.435,274.202 200.623,274.071 200.579 C 273.940 200.536,273.804 200.623,273.767 200.774 C 273.397 202.306,268.350 204.119,264.923 203.949 C 262.387 203.824,260.304 205.145,261.673 206.011 C 261.944 206.183,262.017 206.331,261.833 206.342 C 260.151 206.435,263.996 207.384,266.579 207.513 C 272.306 207.800,274.881 208.460,276.252 209.992 C 277.141 210.986,278.025 213.731,277.559 214.048 C 277.385 214.165,277.343 214.690,277.465 215.214 C 277.603 215.805,277.575 216.000,277.393 215.728 C 277.175 215.402,276.994 215.542,276.692 216.272 C 276.468 216.813,275.851 217.671,275.321 218.179 C 274.791 218.686,274.451 219.255,274.567 219.441 C 274.689 219.640,274.564 219.699,274.265 219.584 C 273.984 219.476,273.306 219.660,272.760 219.992 C 268.434 222.623,258.333 221.280,256.473 217.827 C 256.142 217.211,255.777 216.765,255.663 216.836 C 255.548 216.907,255.515 216.185,255.589 215.232 C 255.721 213.537,256.733 211.333,257.380 211.333 C 257.559 211.333,257.611 211.180,257.495 210.992 C 257.379 210.804,257.407 210.684,257.559 210.724 C 258.554 210.994,259.374 210.265,258.795 209.625 C 258.473 209.268,258.049 209.037,257.854 209.111 C 257.347 209.304,257.226 206.160,257.706 205.248 C 258.196 204.316,259.667 202.528,259.667 202.863 C 259.667 203.000,259.766 203.012,259.887 202.891 C 260.008 202.770,259.569 202.148,258.911 201.510 C 258.253 200.871,257.524 199.820,257.291 199.174 C 257.057 198.528,256.737 198.000,256.580 198.000 C 256.423 198.000,256.362 197.887,256.446 197.750 C 256.530 197.612,256.651 196.600,256.716 195.500 C 256.780 194.400,256.941 193.350,257.072 193.167 C 257.203 192.983,257.762 192.292,258.314 191.631 C 258.866 190.970,259.247 190.358,259.159 190.270 C 259.072 190.183,259.188 190.104,259.417 190.095 C 260.004 190.073,262.694 188.805,262.521 188.632 C 262.037 188.148,268.951 188.612,269.941 189.129 M295.083 188.740 C 295.637 188.712,296.000 188.865,296.000 189.127 C 296.000 189.588,297.609 190.507,298.167 190.364 C 298.350 190.316,298.396 190.382,298.268 190.510 C 298.141 190.637,298.478 191.212,299.019 191.787 C 299.559 192.363,300.086 193.096,300.190 193.417 C 300.294 193.737,300.486 194.000,300.618 194.000 C 300.749 194.000,300.880 194.262,300.908 194.583 C 301.085 196.594,301.458 198.296,301.690 198.152 C 301.840 198.060,301.777 198.625,301.550 199.409 L 301.138 200.833 292.902 200.922 C 287.792 200.978,284.667 201.136,284.667 201.339 C 284.667 201.519,284.835 201.667,285.041 201.667 C 285.304 201.667,285.296 201.810,285.012 202.152 C 284.791 202.419,284.708 202.797,284.828 202.991 C 284.948 203.185,285.114 203.718,285.197 204.176 C 285.603 206.414,288.602 210.059,288.705 208.439 C 288.742 207.858,288.750 207.858,288.900 208.436 C 289.176 209.502,291.444 209.961,293.953 209.459 C 294.545 209.341,294.898 209.104,294.776 208.908 C 294.656 208.713,294.725 208.664,294.936 208.794 C 295.141 208.920,296.059 208.644,296.976 208.179 C 299.049 207.128,299.367 207.127,300.273 208.169 C 301.113 209.135,301.155 209.378,300.583 209.950 C 300.354 210.179,300.167 210.546,300.167 210.766 C 300.167 210.986,299.942 211.175,299.667 211.185 C 298.887 211.216,297.986 211.708,298.169 212.004 C 298.260 212.151,298.034 212.193,297.667 212.097 C 297.181 211.970,296.993 212.091,296.974 212.544 C 296.959 212.887,296.876 212.992,296.789 212.779 C 296.675 212.499,296.331 212.482,295.565 212.716 C 286.019 215.636,277.251 206.187,280.542 196.527 C 280.987 195.223,280.998 194.895,280.617 194.409 C 280.217 193.898,280.228 193.881,280.711 194.259 C 281.315 194.730,281.884 193.955,281.450 193.252 C 281.329 193.056,281.386 192.993,281.578 193.112 C 281.769 193.230,282.323 192.807,282.808 192.171 C 284.661 189.741,288.829 188.167,292.333 188.574 C 293.342 188.691,294.579 188.766,295.083 188.740 M338.373 192.881 C 338.373 195.238,338.364 200.644,338.353 204.895 L 338.333 212.622 337.417 212.728 C 336.912 212.786,335.862 212.781,335.083 212.716 L 333.667 212.600 333.667 200.648 L 333.667 188.697 335.917 188.599 C 337.154 188.544,338.213 188.521,338.270 188.548 C 338.327 188.574,338.373 190.524,338.373 192.881 M263.941 191.993 C 259.031 193.475,260.593 201.000,265.811 201.000 C 271.005 201.000,272.783 194.117,268.095 192.158 C 266.664 191.560,266.564 191.554,266.863 192.083 C 267.051 192.417,267.008 192.417,266.649 192.083 C 266.148 191.619,265.277 191.590,263.941 191.993 M290.572 191.872 C 290.441 192.004,289.996 192.149,289.583 192.195 C 289.171 192.240,288.757 192.290,288.663 192.306 C 287.494 192.496,284.990 195.983,285.088 197.284 C 285.143 198.012,297.337 198.476,297.331 197.750 C 297.318 195.974,295.779 193.245,294.390 192.534 C 293.279 191.966,290.893 191.552,290.572 191.872 M226.250 202.690 C 225.929 202.879,225.664 202.913,225.662 202.767 C 225.659 202.620,225.511 202.725,225.333 203.000 C 225.140 203.299,225.008 203.341,225.005 203.104 C 224.997 202.484,222.199 203.558,221.188 204.569 C 217.308 208.449,224.621 212.149,228.619 208.329 C 229.194 207.780,229.777 207.333,229.915 207.335 C 230.054 207.338,230.213 206.237,230.270 204.889 L 230.374 202.438 228.603 202.392 C 227.630 202.367,226.571 202.501,226.250 202.690 M261.081 211.816 C 260.548 212.265,260.092 212.828,260.069 213.066 C 260.046 213.305,259.935 213.878,259.822 214.341 C 259.680 214.925,259.836 215.459,260.333 216.091 C 261.024 216.969,261.952 217.398,261.468 216.615 C 261.320 216.375,261.377 216.321,261.621 216.472 C 261.835 216.604,261.932 216.840,261.836 216.996 C 261.146 218.112,268.855 218.302,270.914 217.221 C 273.279 215.977,274.001 212.526,271.960 212.218 C 271.707 212.179,271.305 212.026,271.067 211.878 C 270.829 211.729,270.409 211.694,270.133 211.800 C 269.849 211.909,269.720 211.850,269.836 211.663 C 270.131 211.185,268.881 211.258,268.351 211.750 C 267.992 212.083,267.949 212.083,268.138 211.749 C 268.402 211.281,267.485 211.321,266.698 211.811 C 266.357 212.024,266.304 211.984,266.503 211.662 C 266.701 211.341,266.624 211.278,266.221 211.433 C 265.916 211.550,265.667 211.500,265.667 211.323 C 265.667 210.587,262.084 210.972,261.081 211.816 " stroke="none" fill="#ec4c34" fill-rule="evenodd"></path><path id="path2" d="M131.083 161.230 C 131.635 161.374,131.667 163.501,131.667 200.000 C 131.667 236.499,131.635 238.626,131.083 238.770 C 130.644 238.885,130.686 238.932,131.250 238.961 L 132.000 239.000 132.000 200.000 L 132.000 161.000 131.250 161.039 C 130.686 161.068,130.644 161.115,131.083 161.230 M76.551 172.250 C 76.466 172.387,78.969 172.461,82.115 172.414 C 92.796 172.255,93.856 172.139,85.270 172.069 C 80.560 172.031,76.636 172.112,76.551 172.250 M306.488 195.833 C 306.488 205.183,306.531 209.056,306.583 204.440 C 306.635 199.824,306.635 192.174,306.583 187.440 C 306.531 182.706,306.488 186.483,306.488 195.833 M163.812 183.417 L 162.833 184.500 163.917 183.521 C 164.926 182.608,165.153 182.333,164.896 182.333 C 164.838 182.333,164.351 182.821,163.812 183.417 M265.250 188.569 C 265.662 188.648,266.337 188.648,266.750 188.569 C 267.162 188.489,266.825 188.424,266.000 188.424 C 265.175 188.424,264.837 188.489,265.250 188.569 M290.750 188.563 C 291.071 188.647,291.596 188.647,291.917 188.563 C 292.237 188.479,291.975 188.411,291.333 188.411 C 290.692 188.411,290.429 188.479,290.750 188.563 M334.750 188.909 C 335.438 188.981,336.563 188.981,337.250 188.909 C 337.938 188.838,337.375 188.779,336.000 188.779 C 334.625 188.779,334.063 188.838,334.750 188.909 M274.478 189.909 C 277.606 190.023,277.626 190.029,277.777 190.928 C 277.919 191.767,277.926 191.760,277.882 190.833 L 277.833 189.833 274.583 189.814 L 271.332 189.795 274.478 189.909 M159.109 196.167 C 159.111 197.450,159.171 197.934,159.243 197.243 C 159.315 196.551,159.314 195.501,159.241 194.909 C 159.167 194.317,159.108 194.883,159.109 196.167 M164.100 196.000 C 164.100 197.008,164.162 197.421,164.239 196.917 C 164.315 196.412,164.315 195.588,164.239 195.083 C 164.162 194.579,164.100 194.992,164.100 196.000 M270.744 196.333 C 270.744 196.975,270.813 197.237,270.896 196.917 C 270.980 196.596,270.980 196.071,270.896 195.750 C 270.813 195.429,270.744 195.692,270.744 196.333 M230.417 198.167 C 230.421 198.900,230.489 199.161,230.569 198.746 C 230.649 198.331,230.646 197.731,230.562 197.413 C 230.479 197.094,230.414 197.433,230.417 198.167 M284.672 197.750 C 284.667 198.288,285.164 198.327,291.083 198.258 L 297.500 198.183 291.348 198.084 C 286.945 198.013,285.123 197.868,284.937 197.576 C 284.755 197.290,284.675 197.343,284.672 197.750 M245.410 205.068 L 245.333 212.636 243.083 212.753 L 240.833 212.869 243.094 212.935 C 245.905 213.016,245.700 213.681,245.583 204.825 L 245.486 197.500 245.410 205.068 M313.096 200.247 C 314.156 200.313,315.806 200.312,316.762 200.245 C 317.718 200.178,316.850 200.124,314.833 200.125 C 312.817 200.125,312.035 200.180,313.096 200.247 M333.806 206.333 C 333.806 209.908,333.855 211.371,333.915 209.583 C 333.975 207.796,333.975 204.871,333.915 203.083 C 333.855 201.296,333.806 202.758,333.806 206.333 M229.736 202.208 C 230.182 202.340,230.331 202.858,230.424 204.605 L 230.544 206.833 230.522 204.504 C 230.502 202.427,230.428 202.166,229.833 202.106 C 229.341 202.056,229.316 202.083,229.736 202.208 M88.000 206.500 C 87.190 207.325,86.603 208.000,86.695 208.000 C 86.786 208.000,87.524 207.325,88.333 206.500 C 89.143 205.675,89.730 205.000,89.639 205.000 C 89.547 205.000,88.810 205.675,88.000 206.500 M215.744 207.000 C 215.744 207.642,215.813 207.904,215.896 207.583 C 215.980 207.262,215.980 206.737,215.896 206.417 C 215.813 206.096,215.744 206.358,215.744 207.000 M311.452 209.833 C 311.451 211.483,311.507 212.200,311.577 211.427 C 311.647 210.653,311.648 209.303,311.579 208.427 C 311.510 207.550,311.453 208.183,311.452 209.833 M233.254 212.902 C 233.669 212.982,234.269 212.979,234.587 212.896 C 234.906 212.812,234.567 212.747,233.833 212.751 C 233.100 212.754,232.839 212.823,233.254 212.902 M221.917 213.235 C 222.329 213.315,223.004 213.315,223.417 213.235 C 223.829 213.156,223.492 213.091,222.667 213.091 C 221.842 213.091,221.504 213.156,221.917 213.235 M79.315 214.917 L 78.167 216.167 79.417 215.018 C 80.580 213.949,80.820 213.667,80.565 213.667 C 80.510 213.667,79.947 214.229,79.315 214.917 M70.649 223.250 L 69.500 224.500 70.750 223.351 C 71.913 222.282,72.153 222.000,71.899 222.000 C 71.843 222.000,71.281 222.563,70.649 223.250 M62.315 231.250 L 61.167 232.500 62.417 231.351 C 63.580 230.282,63.820 230.000,63.565 230.000 C 63.510 230.000,62.947 230.563,62.315 231.250 " stroke="none" fill="#ef8979" fill-rule="evenodd"></path><path id="path3" d="M191.488 194.833 C 191.488 204.000,191.531 207.702,191.583 203.060 C 191.635 198.418,191.635 190.918,191.583 186.393 C 191.531 181.869,191.488 185.667,191.488 194.833 M195.794 182.167 C 195.795 184.367,195.849 185.223,195.914 184.070 C 195.979 182.917,195.979 181.117,195.913 180.070 C 195.847 179.023,195.793 179.967,195.794 182.167 M175.083 178.896 C 175.404 178.980,175.929 178.980,176.250 178.896 C 176.571 178.813,176.308 178.744,175.667 178.744 C 175.025 178.744,174.762 178.813,175.083 178.896 M329.103 189.500 C 329.105 190.600,329.167 191.010,329.242 190.411 C 329.316 189.812,329.314 188.912,329.238 188.411 C 329.162 187.910,329.101 188.400,329.103 189.500 M324.424 189.333 C 324.424 190.158,324.489 190.496,324.569 190.083 C 324.648 189.671,324.648 188.996,324.569 188.583 C 324.489 188.171,324.424 188.508,324.424 189.333 M333.803 194.500 C 333.803 197.617,333.853 198.937,333.914 197.433 C 333.976 195.930,333.976 193.380,333.915 191.766 C 333.854 190.153,333.803 191.383,333.803 194.500 M338.122 192.167 C 338.123 194.000,338.179 194.707,338.246 193.739 C 338.314 192.770,338.313 191.270,338.245 190.405 C 338.176 189.541,338.121 190.333,338.122 192.167 M256.751 196.167 C 256.754 196.900,256.823 197.161,256.902 196.746 C 256.982 196.331,256.979 195.731,256.896 195.413 C 256.812 195.094,256.747 195.433,256.751 196.167 M274.751 196.167 C 274.754 196.900,274.823 197.161,274.902 196.746 C 274.982 196.331,274.979 195.731,274.896 195.413 C 274.812 195.094,274.747 195.433,274.751 196.167 M260.744 196.333 C 260.744 196.975,260.813 197.237,260.896 196.917 C 260.980 196.596,260.980 196.071,260.896 195.750 C 260.813 195.429,260.744 195.692,260.744 196.333 M234.811 204.500 C 234.811 209.083,234.858 211.005,234.916 208.769 C 234.973 206.534,234.973 202.784,234.916 200.436 C 234.859 198.088,234.811 199.917,234.811 204.500 M211.478 204.833 C 211.478 209.417,211.525 211.338,211.582 209.103 C 211.640 206.868,211.640 203.118,211.583 200.769 C 211.525 198.421,211.478 200.250,211.478 204.833 M207.144 205.000 C 207.144 209.492,207.191 211.329,207.249 209.083 C 207.307 206.838,207.307 203.162,207.249 200.917 C 207.191 198.671,207.144 200.508,207.144 205.000 M280.084 200.500 C 280.088 201.233,280.156 201.494,280.236 201.079 C 280.315 200.665,280.312 200.065,280.229 199.746 C 280.146 199.427,280.080 199.767,280.084 200.500 M91.490 203.083 L 89.500 205.167 91.583 203.177 C 93.519 201.329,93.819 201.000,93.573 201.000 C 93.521 201.000,92.584 201.938,91.490 203.083 M58.333 206.083 C 58.333 206.221,62.121 206.302,66.750 206.265 C 75.219 206.196,74.249 206.077,63.916 205.919 C 60.845 205.872,58.333 205.946,58.333 206.083 M220.077 206.667 C 220.077 207.308,220.146 207.571,220.230 207.250 C 220.314 206.929,220.314 206.404,220.230 206.083 C 220.146 205.762,220.077 206.025,220.077 206.667 M187.088 207.840 C 187.228 207.994,186.938 208.543,186.442 209.060 C 185.947 209.577,185.617 210.000,185.709 210.000 C 186.278 210.000,187.680 208.049,187.277 207.816 C 187.033 207.675,186.948 207.686,187.088 207.840 M282.667 209.104 C 282.667 209.162,283.154 209.649,283.750 210.188 L 284.833 211.167 283.854 210.083 C 282.942 209.074,282.667 208.847,282.667 209.104 M82.490 211.750 L 80.500 213.833 82.583 211.844 C 84.519 209.996,84.819 209.667,84.573 209.667 C 84.521 209.667,83.584 210.604,82.490 211.750 M265.421 218.239 C 265.928 218.316,266.678 218.314,267.088 218.235 C 267.498 218.156,267.083 218.093,266.167 218.095 C 265.250 218.098,264.915 218.163,265.421 218.239 M73.655 220.250 L 71.833 222.167 73.750 220.345 C 74.804 219.343,75.667 218.480,75.667 218.428 C 75.667 218.181,75.348 218.469,73.655 220.250 M65.000 228.500 C 64.190 229.325,63.603 230.000,63.695 230.000 C 63.786 230.000,64.524 229.325,65.333 228.500 C 66.143 227.675,66.730 227.000,66.639 227.000 C 66.547 227.000,65.810 227.675,65.000 228.500 " stroke="none" fill="#f4a494" fill-rule="evenodd"></path><path id="path4" d="M339.693 182.564 C 339.679 182.965,339.854 183.402,340.083 183.534 C 340.313 183.666,340.389 183.651,340.253 183.501 C 340.117 183.351,340.192 182.998,340.420 182.717 C 340.698 182.373,340.706 182.282,340.445 182.438 C 340.232 182.566,339.981 182.482,339.888 182.252 C 339.795 182.022,339.707 182.162,339.693 182.564 " stroke="none" fill="#e44c34" fill-rule="evenodd"></path></g></svg>