<svg width="101" height="36" viewBox="0 0 101 36" fill="none" xmlns="http://www.w3.org/2000/svg">
<g filter="url(#filter0_d)">
<path d="M20.8651 13.0425C20.8176 12.8832 20.7326 12.746 20.6214 12.649C20.5102 12.5521 20.378 12.5001 20.2427 12.5H12.2303L16.8519 1.215C16.9043 1.08793 16.9296 0.946069 16.9256 0.803094C16.9216 0.660119 16.8883 0.520859 16.8289 0.398748C16.7696 0.276636 16.6862 0.175795 16.5868 0.105951C16.4873 0.0361069 16.3753 -0.000382397 16.2614 3.02184e-06C16.1023 8.59337e-05 15.9485 0.0719511 15.8281 0.202503L10.953 5.49L1.22998 16.0358C1.12751 16.1469 1.05454 16.2947 1.02086 16.4593C0.987188 16.624 0.994412 16.7976 1.04157 16.957C1.08872 17.1163 1.17356 17.2537 1.28468 17.3508C1.39581 17.4479 1.52791 17.4999 1.66327 17.5H9.67563L5.05401 28.785C5.00167 28.9121 4.97629 29.0539 4.98031 29.1969C4.98434 29.3399 5.01763 29.4791 5.07698 29.6013C5.13634 29.7234 5.21975 29.8242 5.31916 29.894C5.41858 29.9639 5.53065 30.0004 5.64457 30C5.80366 29.9999 5.95744 29.928 6.07787 29.7975L10.953 24.51L20.676 13.9642C20.7786 13.8532 20.8518 13.7053 20.8856 13.5406C20.9194 13.3758 20.9122 13.202 20.8651 13.0425Z" fill="#E92B2B"/>
</g>
<path d="M37.8984 16.9395C37.7402 18.293 37.2393 19.3389 36.3955 20.0771C35.5576 20.8096 34.4414 21.1758 33.0469 21.1758C31.5352 21.1758 30.3223 20.6338 29.4082 19.5498C28.5 18.4658 28.0459 17.0156 28.0459 15.1992V13.9688C28.0459 12.7793 28.2568 11.7334 28.6787 10.8311C29.1064 9.92871 29.71 9.2373 30.4893 8.75684C31.2686 8.27051 32.1709 8.02734 33.1963 8.02734C34.5557 8.02734 35.6455 8.4082 36.4658 9.16992C37.2861 9.92578 37.7637 10.9746 37.8984 12.3164H36.2021C36.0557 11.2969 35.7363 10.5586 35.2441 10.1016C34.7578 9.64453 34.0752 9.41602 33.1963 9.41602C32.1182 9.41602 31.2715 9.81445 30.6562 10.6113C30.0469 11.4082 29.7422 12.542 29.7422 14.0127V15.252C29.7422 16.6406 30.0322 17.7451 30.6123 18.5654C31.1924 19.3857 32.0039 19.7959 33.0469 19.7959C33.9844 19.7959 34.7021 19.585 35.2002 19.1631C35.7041 18.7354 36.0381 17.9941 36.2021 16.9395H37.8984ZM41.5811 12.6416C42.3018 11.7568 43.2393 11.3145 44.3936 11.3145C46.4033 11.3145 47.417 12.4482 47.4346 14.7158V21H45.8086V14.707C45.8027 14.0215 45.6445 13.5146 45.334 13.1865C45.0293 12.8584 44.5518 12.6943 43.9014 12.6943C43.374 12.6943 42.9111 12.835 42.5127 13.1162C42.1143 13.3975 41.8037 13.7666 41.5811 14.2236V21H39.9551V7.5H41.5811V12.6416ZM55.7402 21C55.6465 20.8125 55.5703 20.4785 55.5117 19.998C54.7559 20.7832 53.8535 21.1758 52.8047 21.1758C51.8672 21.1758 51.0967 20.9121 50.4932 20.3848C49.8955 19.8516 49.5967 19.1777 49.5967 18.3633C49.5967 17.373 49.9717 16.6055 50.7217 16.0605C51.4775 15.5098 52.5381 15.2344 53.9033 15.2344H55.4854V14.4873C55.4854 13.9189 55.3154 13.4678 54.9756 13.1338C54.6357 12.7939 54.1348 12.624 53.4727 12.624C52.8926 12.624 52.4062 12.7705 52.0137 13.0635C51.6211 13.3564 51.4248 13.7109 51.4248 14.127H49.79C49.79 13.6523 49.957 13.1953 50.291 12.7559C50.6309 12.3105 51.0879 11.959 51.6621 11.7012C52.2422 11.4434 52.8779 11.3145 53.5693 11.3145C54.665 11.3145 55.5234 11.5898 56.1445 12.1406C56.7656 12.6855 57.0879 13.4385 57.1113 14.3994V18.7764C57.1113 19.6494 57.2227 20.3438 57.4453 20.8594V21H55.7402ZM53.042 19.7607C53.5518 19.7607 54.0352 19.6289 54.4922 19.3652C54.9492 19.1016 55.2803 18.7588 55.4854 18.3369V16.3857H54.2109C52.2188 16.3857 51.2227 16.9688 51.2227 18.1348C51.2227 18.6445 51.3926 19.043 51.7324 19.3301C52.0723 19.6172 52.5088 19.7607 53.042 19.7607ZM64.2568 12.9492C64.0107 12.9082 63.7441 12.8877 63.457 12.8877C62.3906 12.8877 61.667 13.3418 61.2861 14.25V21H59.6602V11.4902H61.2422L61.2686 12.5889C61.8018 11.7393 62.5576 11.3145 63.5361 11.3145C63.8525 11.3145 64.0928 11.3555 64.2568 11.4375V12.9492ZM65.1973 16.166C65.1973 14.6836 65.54 13.5059 66.2256 12.6328C66.9111 11.7539 67.8193 11.3145 68.9502 11.3145C70.1104 11.3145 71.0156 11.7246 71.666 12.5449L71.7451 11.4902H73.2305V20.7715C73.2305 22.002 72.8643 22.9717 72.1318 23.6807C71.4053 24.3896 70.4268 24.7441 69.1963 24.7441C68.5107 24.7441 67.8398 24.5977 67.1836 24.3047C66.5273 24.0117 66.0264 23.6104 65.6807 23.1006L66.5244 22.125C67.2217 22.9863 68.0742 23.417 69.082 23.417C69.873 23.417 70.4883 23.1943 70.9277 22.749C71.373 22.3037 71.5957 21.6768 71.5957 20.8682V20.0508C70.9453 20.8008 70.0576 21.1758 68.9326 21.1758C67.8193 21.1758 66.917 20.7275 66.2256 19.8311C65.54 18.9346 65.1973 17.7129 65.1973 16.166ZM66.832 16.3506C66.832 17.4229 67.0518 18.2666 67.4912 18.8818C67.9307 19.4912 68.5459 19.7959 69.3369 19.7959C70.3623 19.7959 71.1152 19.3301 71.5957 18.3984V14.0566C71.0977 13.1484 70.3506 12.6943 69.3545 12.6943C68.5635 12.6943 67.9453 13.002 67.5 13.6172C67.0547 14.2324 66.832 15.1436 66.832 16.3506ZM79.6377 21.1758C78.3486 21.1758 77.2998 20.7539 76.4912 19.9102C75.6826 19.0605 75.2783 17.9268 75.2783 16.5088V16.21C75.2783 15.2666 75.457 14.4258 75.8145 13.6875C76.1777 12.9434 76.6816 12.3633 77.3262 11.9473C77.9766 11.5254 78.6797 11.3145 79.4355 11.3145C80.6719 11.3145 81.6328 11.7217 82.3184 12.5361C83.0039 13.3506 83.3467 14.5166 83.3467 16.0342V16.7109H76.9043C76.9277 17.6484 77.2002 18.4072 77.7217 18.9873C78.249 19.5615 78.917 19.8486 79.7256 19.8486C80.2998 19.8486 80.7861 19.7314 81.1846 19.4971C81.583 19.2627 81.9316 18.9521 82.2305 18.5654L83.2236 19.3389C82.4268 20.5635 81.2314 21.1758 79.6377 21.1758ZM79.4355 12.6504C78.7793 12.6504 78.2285 12.8906 77.7832 13.3711C77.3379 13.8457 77.0625 14.5137 76.957 15.375H81.7207V15.252C81.6738 14.4258 81.4512 13.7871 81.0527 13.3359C80.6543 12.8789 80.1152 12.6504 79.4355 12.6504Z" fill="black"/>
<path d="M87.1787 15.9902V21H85.4912V8.20312H90.2109C91.6113 8.20312 92.707 8.56055 93.498 9.27539C94.2949 9.99023 94.6934 10.9365 94.6934 12.1143C94.6934 13.3564 94.3037 14.3145 93.5244 14.9883C92.751 15.6562 91.6406 15.9902 90.1934 15.9902H87.1787ZM87.1787 14.6104H90.2109C91.1133 14.6104 91.8047 14.3994 92.2852 13.9775C92.7656 13.5498 93.0059 12.9346 93.0059 12.1318C93.0059 11.3701 92.7656 10.7607 92.2852 10.3037C91.8047 9.84668 91.1455 9.60938 90.3076 9.5918H87.1787V14.6104ZM98.3584 21H96.7324V11.4902H98.3584V21ZM96.6006 8.96777C96.6006 8.7041 96.6797 8.48145 96.8379 8.2998C97.002 8.11816 97.2422 8.02734 97.5586 8.02734C97.875 8.02734 98.1152 8.11816 98.2793 8.2998C98.4434 8.48145 98.5254 8.7041 98.5254 8.96777C98.5254 9.23145 98.4434 9.45117 98.2793 9.62695C98.1152 9.80273 97.875 9.89062 97.5586 9.89062C97.2422 9.89062 97.002 9.80273 96.8379 9.62695C96.6797 9.45117 96.6006 9.23145 96.6006 8.96777Z" fill="#E92B2B"/>
<path d="M23.9066 3V28" stroke="black"/>
<defs>
<filter id="filter0_d" x="-3" y="0" width="27.9066" height="38" filterUnits="userSpaceOnUse" color-interpolation-filters="sRGB">
<feFlood flood-opacity="0" result="BackgroundImageFix"/>
<feColorMatrix in="SourceAlpha" type="matrix" values="0 0 0 0 0 0 0 0 0 0 0 0 0 0 0 0 0 0 127 0" result="hardAlpha"/>
<feOffset dy="4"/>
<feGaussianBlur stdDeviation="2"/>
<feComposite in2="hardAlpha" operator="out"/>
<feColorMatrix type="matrix" values="0 0 0 0 0 0 0 0 0 0 0 0 0 0 0 0 0 0 0.25 0"/>
<feBlend mode="normal" in2="BackgroundImageFix" result="effect1_dropShadow"/>
<feBlend mode="normal" in="SourceGraphic" in2="effect1_dropShadow" result="shape"/>
</filter>
</defs>
</svg>
